<svg version="1.1" xmlns="http://www.w3.org/2000/svg" xmlns:xlink="http://www.w3.org/1999/xlink" width="165.6089" height="165.72451" viewBox="0,0,165.6089,165.72451"><defs><radialGradient cx="240" cy="179.77814" r="82.80445" gradientUnits="userSpaceOnUse" id="color-1"><stop offset="0" stop-color="#95ae71"/><stop offset="1" stop-color="#058500"/></radialGradient><radialGradient cx="204.73261" cy="144.79484" r="39.99754" gradientUnits="userSpaceOnUse" id="color-2"><stop offset="0" stop-color="#ac5539"/><stop offset="1" stop-color="#ac5539" stop-opacity="0"/></radialGradient><radialGradient cx="208.98356" cy="196.96556" r="39.99754" gradientUnits="userSpaceOnUse" id="color-3"><stop offset="0" stop-color="#bc7e58"/><stop offset="1" stop-color="#bc7e58" stop-opacity="0"/></radialGradient><radialGradient cx="279.70385" cy="208.17258" r="39.99754" gradientUnits="userSpaceOnUse" id="color-4"><stop offset="0" stop-color="#bc7e58"/><stop offset="1" stop-color="#bc7e58" stop-opacity="0"/></radialGradient><radialGradient cx="241.05887" cy="219.76608" r="39.99754" gradientUnits="userSpaceOnUse" id="color-5"><stop offset="0" stop-color="#eee0cd"/><stop offset="1" stop-color="#eee0cd" stop-opacity="0"/></radialGradient><radialGradient cx="239.51311" cy="141.31677" r="39.99754" gradientUnits="userSpaceOnUse" id="color-6"><stop offset="0" stop-color="#ac5539"/><stop offset="1" stop-color="#ac5539" stop-opacity="0"/></radialGradient></defs><g transform="translate(-157.19555,-96.97369)"><g data-paper-data="{&quot;isPaintingLayer&quot;:true}" fill-rule="nonzero" stroke-width="2.5" stroke-linejoin="miter" stroke-miterlimit="10" stroke-dasharray="" stroke-dashoffset="0" style="mix-blend-mode: normal"><path d="M322.80445,96.97369v165.6089h-165.6089v-165.6089z" data-paper-data="{&quot;index&quot;:null}" fill="url(#color-1)" stroke="none" stroke-linecap="butt"/><path d="M164.73507,144.79484c0,-22.09002 17.90752,-39.99754 39.99754,-39.99754c22.09002,0 39.99754,17.90752 39.99754,39.99754c0,22.09002 -17.90752,39.99754 -39.99754,39.99754c-22.09002,0 -39.99754,-17.90752 -39.99754,-39.99754z" data-paper-data="{&quot;index&quot;:null}" fill="url(#color-2)" stroke="none" stroke-linecap="butt"/><path d="M168.98595,196.96556c0,-22.09002 17.90752,-39.99754 39.99754,-39.99754c22.09002,0 39.99754,17.90752 39.99754,39.99754c0,22.09002 -17.90752,39.99754 -39.99754,39.99754c-22.09002,0 -39.99754,-17.90752 -39.99754,-39.99754z" data-paper-data="{&quot;index&quot;:null}" fill="url(#color-3)" stroke="none" stroke-linecap="butt"/><path d="M239.70631,208.17258c0,-22.09002 17.90752,-39.99754 39.99754,-39.99754c22.09002,0 39.99754,17.90752 39.99754,39.99754c0,22.09002 -17.90752,39.99754 -39.99754,39.99754c-22.09002,0 -39.99754,-17.90752 -39.99754,-39.99754z" data-paper-data="{&quot;index&quot;:null}" fill="url(#color-4)" stroke="none" stroke-linecap="butt"/><path d="M201.06133,219.76608c0,-22.09002 17.90752,-39.99754 39.99754,-39.99754c22.09002,0 39.99754,17.90752 39.99754,39.99754c0,22.09002 -17.90752,39.99754 -39.99754,39.99754c-22.09002,0 -39.99754,-17.90752 -39.99754,-39.99754z" data-paper-data="{&quot;index&quot;:null}" fill="url(#color-5)" stroke="none" stroke-linecap="butt"/><path d="M199.5155,141.31677c0,-22.09002 17.90752,-39.99754 39.99754,-39.99754c22.09002,0 39.99754,17.90752 39.99754,39.99754c0,22.09002 -17.90752,39.99754 -39.99754,39.99754c-22.09002,0 -39.99754,-17.90752 -39.99754,-39.99754z" data-paper-data="{&quot;index&quot;:null}" fill="url(#color-6)" stroke="none" stroke-linecap="butt"/><path d="M211.35059,260.00197c0.63002,-2.30527 1.40615,-4.82617 2.40237,-5.892c1.48062,-1.7912 3.11761,-2.49077 4.62337,-2.21268c1.27106,0.2397 2.49577,1.35256 3.34481,3.59552c0.50027,1.34702 0.7939,3.56376 0.69983,5.8078c-3.78413,-0.04724 -8.18137,0.12029 -11.9653,0.06954c0.099,-0.38539 0.79159,-0.98954 0.89492,-1.36811z" data-paper-data="{&quot;index&quot;:null}" fill="#bc7e58" stroke="#b1936a" stroke-linecap="butt"/><path d="M220.97029,231.66652c1.61658,-0.95 2.96381,-0.50352 4.20784,-0.01054c1.12266,0.46318 2.24073,1.25532 2.76932,2.82676c0.46878,1.38716 0.4104,3.48618 0.09082,5.59784c-0.91588,6.05729 -2.56105,12.47464 -4.19223,18.76514c-0.2124,1.58557 0.41607,1.46981 -0.54346,1.46683c-3.83515,-0.01446 -7.60617,-0.34471 -10.96016,-1.60591c-0.85262,-0.32647 -1.84574,-0.83316 -1.64335,-2.50624c1.59023,-6.51405 3.95375,-13.49303 6.56237,-19.96424c0.81539,-2.023 2.44792,-3.82819 3.70885,-4.56965z" data-paper-data="{&quot;index&quot;:null}" fill="#95ae71" stroke="#80d16b" stroke-linecap="round"/><path d="M255.06028,255.66512c0.84911,-2.24289 2.07381,-3.35576 3.34481,-3.59545c1.50576,-0.27808 3.14275,0.42148 4.62337,2.21268c0.99616,1.06583 1.77235,3.58673 2.40237,5.892c0.11488,0.4208 0.07888,0.77232 0.18843,1.20157c-3.80264,-0.00007 -7.45731,0.0728 -11.25996,0.07057c-0.09062,-2.23499 0.20266,-4.43963 0.70098,-5.78131z" data-paper-data="{&quot;index&quot;:null}" fill="#bc7e58" stroke="#b1936a" stroke-linecap="butt"/><path d="M259.51998,236.40856c2.60855,6.47121 4.97214,13.45019 6.5623,19.96424c0.20239,1.67308 -0.79079,2.17971 -1.64335,2.50617c-3.354,1.2612 -7.12508,1.59145 -10.96016,1.60598c-0.95946,0.00291 -0.33099,0.11873 -0.54346,-1.46683c-1.63118,-6.2905 -3.27628,-12.70785 -4.19223,-18.76514c-0.31957,-2.11166 -0.37796,-4.21068 0.09082,-5.59784c0.52866,-1.57144 1.64672,-2.36358 2.76939,-2.82676c1.24403,-0.49298 2.59125,-0.93946 4.20784,0.01054c1.26093,0.74146 2.89346,2.54665 3.70885,4.56965z" data-paper-data="{&quot;index&quot;:null}" fill="#95ae71" stroke="#80d16b" stroke-linecap="round"/><path d="M252.06843,232.16578c1.1995,1.49042 1.29681,1.89818 1.68105,5.52215c0.81552,7.91283 1.75417,15.83181 2.4813,23.75958c-5.94802,-0.00297 -11.89604,-0.00879 -17.84407,-0.01798c-5.81307,-0.00906 -11.83928,-0.00072 -17.90171,-0.07965c0.96933,-9.54462 2.1151,-19.12427 3.96659,-28.51651c0.77565,-3.95544 2.07962,-1.78289 3.72229,-1.88122c6.97871,-0.43445 13.98256,-0.01696 20.83274,0.36411c1.69788,0.08981 2.26702,-0.11407 3.06193,0.84958z" data-paper-data="{&quot;index&quot;:null}" fill="#eee0cd" stroke="#c9c9c9" stroke-linecap="butt"/><path d="M271.03205,151.25402c8.68443,8.70957 14.06007,20.73732 14.06007,34.01025c0,13.27293 -5.37564,25.30082 -14.06007,34.01039c-8.68443,8.70815 -20.67772,14.09947 -33.91267,14.09947c-13.23489,0 -25.22817,-5.39132 -33.9126,-14.09947c-8.68443,-8.70957 -14.06007,-20.73746 -14.06007,-34.01039c0,-13.27293 5.37564,-25.30068 14.06007,-34.01025c8.68443,-8.70815 20.67765,-14.09947 33.9126,-14.09947c13.23502,0 25.22824,5.39132 33.91267,14.09947z" data-paper-data="{&quot;index&quot;:null}" fill="#bc7e58" stroke="#b1936a" stroke-linecap="butt"/><path d="M222.22,170.00741c1.83641,0 3.50064,1.5209 4.70595,3.97679c1.20544,2.45684 1.95109,5.84882 1.95109,9.59308c0,3.74426 -0.74558,7.13623 -1.95109,9.59321c-1.20531,2.45596 -2.86954,3.97679 -4.70595,3.97679c-1.83628,0 -3.50051,-1.52083 -4.70595,-3.97679c-1.20531,-2.45698 -1.95096,-5.84895 -1.95096,-9.59321c0,-3.74426 0.74558,-7.13623 1.95096,-9.59308c1.20544,-2.45596 2.86967,-3.97679 4.70595,-3.97679z" data-paper-data="{&quot;index&quot;:null}" fill="#b56d3c" stroke="#ffffff" stroke-linecap="butt"/><path d="M259.58087,205.1262c0,0 -3.67161,4.72926 -6.70698,6.22779c-3.11782,1.51961 -10.53956,1.24559 -10.53956,1.24559" data-paper-data="{&quot;index&quot;:null}" fill="none" stroke="#000000" stroke-linecap="round"/><path d="M250.94597,169.06903c1.83641,0 3.50064,1.52083 4.70595,3.97679c1.20544,2.45684 1.95109,5.84882 1.95109,9.59308c0,3.74426 -0.74558,7.13623 -1.95109,9.59321c-1.20531,2.45596 -2.86954,3.97679 -4.70595,3.97679c-1.83628,0 -3.50051,-1.52083 -4.70595,-3.97679c-1.20531,-2.45698 -1.95096,-5.84895 -1.95096,-9.59321c0,-3.74426 0.74558,-7.13623 1.95096,-9.59308c1.20544,-2.45596 2.86967,-3.97679 4.70595,-3.97679z" data-paper-data="{&quot;index&quot;:null}" fill="#b56d3c" stroke="#ffffff" stroke-linecap="butt"/><path d="M251.81752,160.21451c0,0 4.85685,-0.87337 6.82065,0.3608c1.99759,1.25728 3.44584,6.19657 3.44584,6.19657" data-paper-data="{&quot;index&quot;:null}" fill="none" stroke="#000000" stroke-linecap="round"/><path d="M213.27222,166.83512c0,0 0.84269,-4.69858 2.3698,-6.2309c1.26572,-1.10732 4.88956,-0.6305 4.88956,-0.6305" data-paper-data="{&quot;index&quot;:null}" fill="none" stroke="#000000" stroke-linecap="round"/><path d="M185.72709,165.56791c0,-2.60673 2.60666,-2.60673 2.60666,-2.60673h1.56556c0.18422,0.0002 0.37262,0.0127 0.56387,0.03352c0.09664,-6.59453 0.42797,-13.21056 1.55536,-19.69818c0.89283,-5.13763 2.56186,-10.29858 3.8244,-15.35985c0.43459,-1.74221 2.56321,-11.36691 4.07491,-11.76771c2.54354,-0.67435 4.6825,2.19207 6.98087,3.6635l0.49973,-0.49973l0.22861,0.22861c0.28058,-0.50602 0.6453,-0.88155 1.202,-0.95919c2.23167,-0.31133 4.2296,1.58131 6.24137,2.59625c1.10752,0.55873 1.84594,2.29608 3.07112,2.10186c1.22524,-0.19422 1.43994,-2.02725 2.27053,-2.94867c1.20112,-1.33242 7.97994,-7.98636 9.18281,-8.10381c1.65078,-0.16124 1.82506,3.478 3.48185,3.55464c1.14591,0.05298 0.24341,-2.32899 0.74828,-3.359c0.78356,-1.59868 2.03144,-2.92448 3.04787,-4.38624c0.61718,-0.8877 5.90207,-8.63415 6.61487,-8.98893c1.91805,-0.9546 4.27812,-0.29856 6.42052,-0.29633c1.80627,0.00189 3.86346,-0.62462 5.41017,0.30842c1.89014,1.14023 4.22669,5.88065 5.52688,8.43129c0.02581,-0.04825 0.05413,-0.09569 0.08528,-0.14239c0.11069,-0.16604 8.69349,-6.00884 9.28202,-6.3122c1.6768,-0.86418 3.69107,-3.10579 5.26711,-2.06929c0.78288,0.51487 1.20261,1.30972 1.46352,2.22701c1.12307,0.41722 2.26904,1.02542 3.35548,1.29485c0.68395,0.16955 9.54841,2.73208 10.04206,3.25493c1.47109,1.55793 1.59861,3.9776 2.31223,5.99803c0.59482,1.68403 1.52231,3.32622 1.61131,5.11c0.09765,1.95859 -0.67841,3.8634 -1.06806,5.78536c-0.23355,1.15213 -0.19354,2.42805 -0.80099,3.43455c-0.72112,1.1949 -2.50644,1.60145 -3.02118,2.89873c-0.51886,1.30769 0.16881,2.80932 0.19841,4.21588c0.06224,2.95833 0,5.91795 0,8.87689c0,11.88658 0.62786,23.96968 -0.38931,35.81342c-1.58327,0.91074 -2.97563,2.29763 -4.74967,2.73215c-10.3938,2.54571 -7.98,-12.19703 -7.90236,-18.1929c0.0348,-2.68573 0.9304,-5.07073 -1.84702,-6.94763c-1.20024,-0.81106 -2.80223,-0.73761 -4.19108,-1.14956c-5.08438,-1.50826 -9.35162,-1.71383 -14.67036,-1.81337c-5.25488,-0.09833 -10.8219,0.55258 -16.03962,-0.01635c-3.15566,-0.3441 -6.22799,-1.32979 -9.39352,-1.56556c-3.96449,-0.29531 -8.32857,0.00892 -12.30975,0.00892c-3.74696,0 -8.7266,-0.93993 -12.21589,0.78498c-3.47273,1.7168 -2.81074,3.60849 -3.46483,6.95506c-0.69828,3.57281 -1.1009,6.12703 -4.64817,8.74566c-0.39215,0.2895 -1.17064,0.46865 -2.10247,0.57853c-0.00764,0.74659 -0.01135,1.49569 -0.01135,2.24728c0,0 0,2.60673 -2.60673,2.60673c-2.60673,0 -2.60673,-2.60673 -2.60673,-2.60673c0,-0.69503 0.00034,-1.39088 0.00162,-2.08746c-0.19807,-0.00162 -0.37512,-0.00277 -0.52609,-0.00264h-1.56556c0,0 -2.60673,0 -2.60673,-2.60666z" data-paper-data="{&quot;index&quot;:null}" fill="#ac5539" stroke="none" stroke-linecap="butt"/></g></g></svg>