<svg width="353" height="353" viewBox="0 0 353 353" fill="none" xmlns="http://www.w3.org/2000/svg">
<path d="M0 176.099C0 78.8423 78.8423 0 176.099 0C273.356 0 352.198 78.8423 352.198 176.099C352.198 273.356 273.356 352.198 176.099 352.198C78.8423 352.198 0 273.356 0 176.099Z" fill="url(#paint0_radial_30_73)"/>
<path d="M0 176.099C0 78.8423 78.8423 0 176.099 0C273.356 0 352.198 78.8423 352.198 176.099C352.198 273.356 273.356 352.198 176.099 352.198C78.8423 352.198 0 273.356 0 176.099Z" fill="url(#paint1_radial_30_73)"/>
<path d="M0 176.099C0 78.8423 78.8423 0 176.099 0C273.356 0 352.198 78.8423 352.198 176.099C352.198 273.356 273.356 352.198 176.099 352.198C78.8423 352.198 0 273.356 0 176.099Z" fill="url(#paint2_radial_30_73)"/>
<path d="M0 176.099C0 78.8423 78.8423 0 176.099 0C273.356 0 352.198 78.8423 352.198 176.099C352.198 273.356 273.356 352.198 176.099 352.198C78.8423 352.198 0 273.356 0 176.099Z" fill="url(#paint3_radial_30_73)"/>
<path d="M0 176.099C0 78.8423 78.8423 0 176.099 0C273.356 0 352.198 78.8423 352.198 176.099C352.198 273.356 273.356 352.198 176.099 352.198C78.8423 352.198 0 273.356 0 176.099Z" fill="url(#paint4_radial_30_73)"/>
<path d="M39.2532 176.099C39.2532 100.521 100.521 39.2532 176.099 39.2532C251.677 39.2532 312.945 100.521 312.945 176.099C312.945 251.677 251.677 312.945 176.099 312.945C100.521 312.945 39.2532 251.677 39.2532 176.099Z" fill="url(#paint5_radial_30_73)"/>
<path d="M39.2532 176.099C39.2532 100.521 100.521 39.2532 176.099 39.2532C251.677 39.2532 312.945 100.521 312.945 176.099C312.945 251.677 251.677 312.945 176.099 312.945C100.521 312.945 39.2532 251.677 39.2532 176.099Z" fill="url(#paint6_radial_30_73)"/>
<path d="M39.2532 176.099C39.2532 100.521 100.521 39.2532 176.099 39.2532C251.677 39.2532 312.945 100.521 312.945 176.099C312.945 251.677 251.677 312.945 176.099 312.945C100.521 312.945 39.2532 251.677 39.2532 176.099Z" fill="url(#paint7_radial_30_73)"/>
<path d="M39.2532 176.099C39.2532 100.521 100.521 39.2532 176.099 39.2532C251.677 39.2532 312.945 100.521 312.945 176.099C312.945 251.677 251.677 312.945 176.099 312.945C100.521 312.945 39.2532 251.677 39.2532 176.099Z" fill="url(#paint8_radial_30_73)"/>
<path d="M39.2532 176.099C39.2532 100.521 100.521 39.2532 176.099 39.2532C251.677 39.2532 312.945 100.521 312.945 176.099C312.945 251.677 251.677 312.945 176.099 312.945C100.521 312.945 39.2532 251.677 39.2532 176.099Z" fill="url(#paint9_radial_30_73)"/>
<path d="M186.041 132.294C190.092 132.406 193.975 132.969 197.688 133.982C201.402 134.882 204.609 135.951 207.31 137.189L203.09 149.511C200.164 148.386 196.957 147.373 193.468 146.473C189.98 145.572 186.773 145.122 183.847 145.122C178.22 145.122 173.55 146.416 169.837 149.005C166.235 151.48 163.535 155.306 161.734 160.483C160.046 165.547 159.202 171.961 159.202 179.726C159.202 187.491 160.102 193.849 161.903 198.8C163.703 203.752 166.404 207.409 170.005 209.772C173.606 212.135 178.051 213.317 183.34 213.317C187.954 213.317 192.005 212.867 195.494 211.967C198.982 210.954 202.415 209.716 205.791 208.253V221.251C202.865 222.713 199.826 223.895 196.676 224.795C193.637 225.583 190.092 226.089 186.041 226.315V242.688H175.069V225.808C168.767 224.795 163.31 222.601 158.696 219.225C154.082 215.849 150.481 210.954 147.893 204.539C145.417 198.125 144.179 189.91 144.179 179.895C144.179 169.654 145.473 161.271 148.061 154.744C150.65 148.217 154.251 143.209 158.865 139.721C163.478 136.232 168.88 133.982 175.069 132.969V118.79H186.041V132.294Z" fill="white"/>
<path d="M58.3412 154.697C53.3733 154.076 53.9943 149.108 53.9943 149.108L54.6329 144.077C54.7183 126.758 64.7197 104.477 74.9832 90.6514C74.9832 90.6514 77.9872 86.6462 81.9924 89.6501C85.9977 92.6541 82.9937 96.6593 82.9937 96.6593C73.7934 108.778 64.5424 129.446 64.6267 144.7L63.9301 150.35C63.9301 150.35 63.3091 155.318 58.3412 154.697Z" fill="white"/>
<path d="M53.9556 181.103C53.9556 178.338 56.1971 176.097 58.9621 176.097C61.7272 176.097 63.9687 178.338 63.9687 181.103C63.9687 183.868 61.7272 186.11 58.9621 186.11C56.1971 186.11 53.9556 183.868 53.9556 181.103Z" fill="white"/>
<defs>
<radialGradient id="paint0_radial_30_73" cx="0" cy="0" r="1" gradientUnits="userSpaceOnUse" gradientTransform="translate(176.099 176.099) scale(176.099)">
<stop stop-color="#FFB800"/>
<stop offset="1" stop-color="#FFB800" stop-opacity="0"/>
</radialGradient>
<radialGradient id="paint1_radial_30_73" cx="0" cy="0" r="1" gradientUnits="userSpaceOnUse" gradientTransform="translate(176.099 176.099) scale(176.099)">
<stop stop-color="#FFB800"/>
<stop offset="1" stop-color="#FFB800" stop-opacity="0"/>
</radialGradient>
<radialGradient id="paint2_radial_30_73" cx="0" cy="0" r="1" gradientUnits="userSpaceOnUse" gradientTransform="translate(176.099 176.099) scale(176.099)">
<stop stop-color="#FFB800"/>
<stop offset="1" stop-color="#FFB800" stop-opacity="0"/>
</radialGradient>
<radialGradient id="paint3_radial_30_73" cx="0" cy="0" r="1" gradientUnits="userSpaceOnUse" gradientTransform="translate(176.099 176.099) scale(176.099)">
<stop stop-color="#FFB800"/>
<stop offset="1" stop-color="#FFB800" stop-opacity="0"/>
</radialGradient>
<radialGradient id="paint4_radial_30_73" cx="0" cy="0" r="1" gradientUnits="userSpaceOnUse" gradientTransform="translate(176.099 176.099) scale(176.099)">
<stop stop-color="#FFB800"/>
<stop offset="1" stop-color="#FFB800" stop-opacity="0"/>
</radialGradient>
<radialGradient id="paint5_radial_30_73" cx="0" cy="0" r="1" gradientUnits="userSpaceOnUse" gradientTransform="translate(176.099 176.099) scale(136.846)">
<stop stop-color="#FFFC5E"/>
<stop offset="1" stop-color="#FFFC5E" stop-opacity="0"/>
</radialGradient>
<radialGradient id="paint6_radial_30_73" cx="0" cy="0" r="1" gradientUnits="userSpaceOnUse" gradientTransform="translate(176.099 176.099) scale(136.846)">
<stop stop-color="#FFFC5E"/>
<stop offset="1" stop-color="#FFFC5E" stop-opacity="0"/>
</radialGradient>
<radialGradient id="paint7_radial_30_73" cx="0" cy="0" r="1" gradientUnits="userSpaceOnUse" gradientTransform="translate(176.099 176.099) scale(136.846)">
<stop stop-color="#FFFC5E"/>
<stop offset="1" stop-color="#FFFC5E" stop-opacity="0"/>
</radialGradient>
<radialGradient id="paint8_radial_30_73" cx="0" cy="0" r="1" gradientUnits="userSpaceOnUse" gradientTransform="translate(176.099 176.099) scale(136.846)">
<stop stop-color="#FFFC5E"/>
<stop offset="1" stop-color="#FFFC5E" stop-opacity="0"/>
</radialGradient>
<radialGradient id="paint9_radial_30_73" cx="0" cy="0" r="1" gradientUnits="userSpaceOnUse" gradientTransform="translate(176.099 176.099) scale(136.846)">
<stop stop-color="#FFFC5E"/>
<stop offset="1" stop-color="#FFFC5E" stop-opacity="0"/>
</radialGradient>
</defs>
</svg>
