<svg width="594" height="352" viewBox="0 0 594 352" fill="none" xmlns="http://www.w3.org/2000/svg">
<path d="M572.237 351.954H21.5219C9.64774 351.954 0 342.945 0 331.857V20.1895C0 9.05523 9.64776 0 21.6209 0H572.138C584.062 0 593.759 9.00903 593.759 20.1895V331.857C593.759 342.991 584.111 351.954 572.237 351.954Z" fill="#2E7D32"/>
<path d="M572.831 295.728H20.9284C9.40049 295.728 0.0495605 286.996 0.0495605 276.232V20.1895C0.0495605 9.05523 9.69732 0 21.6705 0H572.188C584.112 0 593.809 9.00903 593.809 20.1895V276.185C593.759 286.996 584.408 295.728 572.831 295.728Z" fill="url(#paint0_linear_30_90)"/>
<path d="M176.53 182.353C176.53 176.67 174.402 171.865 170.147 167.984C165.892 164.104 158.669 160.546 148.526 157.405C134.426 153.385 124.135 148.164 117.703 141.696C111.222 135.228 108.006 127.005 108.006 117.072C108.006 106.908 111.172 98.5915 117.505 92.1235C123.838 85.6093 132.546 81.7747 143.579 80.5273V64.4958C143.579 62.1395 145.657 60.1991 148.18 60.1991H153.771C156.294 60.1991 158.372 62.1395 158.372 64.4958V80.6196C169.504 82.0518 178.162 86.3947 184.347 93.6943C189.888 100.255 192.956 108.94 193.549 119.798C193.648 121.923 191.768 123.678 189.492 123.678H179.251C177.074 123.678 175.392 122.061 175.194 120.028C174.65 112.96 172.473 107.231 168.663 102.842C164.21 97.7137 158.224 95.1265 150.703 95.1265C142.837 95.1265 136.801 97.0207 132.645 100.855C128.489 104.644 126.361 110.003 126.361 116.794C126.361 123.124 128.588 128.16 132.991 131.902C137.394 135.644 144.667 139.063 154.76 142.112C164.853 145.161 172.72 148.534 178.41 152.23C184.05 155.926 188.255 160.176 190.927 165.074C193.599 169.971 194.935 175.7 194.935 182.26C194.935 192.702 191.57 201.11 184.842 207.486C178.113 213.861 168.712 217.65 156.591 218.805V232.203C156.591 234.559 154.513 236.499 151.99 236.499H146.498C143.975 236.499 141.897 234.559 141.897 232.203V218.805C129.577 217.742 119.929 213.676 112.953 206.515C106.719 200.14 103.256 191.731 102.613 181.336C102.464 179.211 104.394 177.455 106.67 177.455H117.01C119.088 177.455 120.869 178.888 121.018 180.828C121.562 187.804 123.937 193.302 128.142 197.322C132.991 201.942 139.819 204.298 148.724 204.298C157.383 204.298 164.21 202.357 169.207 198.43C174.056 194.411 176.53 189.052 176.53 182.353Z" fill="white"/>
<path d="M156.591 222.639L141.896 218.712L143.579 80.8968V76.2767L158.372 80.5734L156.591 218.574V222.639Z" fill="white"/>
<path opacity="0.5" d="M308.135 147.887C308.135 100.683 349.115 62.4166 399.665 62.4166C450.216 62.4166 491.196 100.683 491.196 147.887C491.196 195.091 450.216 233.358 399.665 233.358C349.115 233.358 308.135 195.091 308.135 147.887Z" fill="#2E7D32"/>
<path d="M506.929 33.218H87.2753C84.3068 59.6446 62.5374 80.8967 34.6825 85.0085V216.864C60.212 220.653 80.794 238.855 86.2363 262.464H506.929C511.184 237.516 532.36 217.742 559.077 213.769V81.9131C532.36 77.9399 511.184 58.1662 506.929 33.218ZM516.033 23.978C516.033 51.2823 539.732 73.4123 568.972 73.4123V222.316C539.732 222.316 516.033 244.446 516.033 271.75H77.6275C75.8958 245.878 52.8896 225.411 24.7874 225.411V76.5077C54.0276 76.5077 77.7265 54.3777 77.7265 27.0734C77.7265 26.0108 77.677 24.9944 77.6275 23.978H516.033Z" fill="#2E7D32"/>
<path d="M242.431 352V0.0462646H351.328V352H242.431Z" fill="#FFECB3"/>
<path opacity="0.5" d="M242.431 352V295.728H351.328V352H242.431Z" fill="#FFB74D"/>
<defs>
<linearGradient id="paint0_linear_30_90" x1="296.88" y1="295.705" x2="296.88" y2="1.42897" gradientUnits="userSpaceOnUse">
<stop stop-color="#43A047"/>
<stop offset="0.9992" stop-color="#66BB6A"/>
</linearGradient>
</defs>
</svg>
